<?xml version="1.0" standalone="no"?>
<!DOCTYPE svg PUBLIC "-//W3C//DTD SVG 20010904//EN"
 "http://www.w3.org/TR/2001/REC-SVG-20010904/DTD/svg10.dtd">
<svg version="1.0" xmlns="http://www.w3.org/2000/svg"
 width="1280.000000pt" height="111.000000pt" viewBox="0 0 1280.000000 111.000000"
 preserveAspectRatio="xMidYMid meet">
<metadata>
Created by potrace 1.16, written by Peter Selinger 2001-2019
</metadata>
<g transform="translate(0.000000,111.000000) scale(0.100000,-0.100000)"
fill="#000000" stroke="none">
<path d="M2298 1094 c-162 -35 -288 -124 -357 -254 -85 -159 -86 -420 -3 -573
36 -66 135 -163 201 -196 110 -56 180 -71 331 -71 172 0 224 10 328 61 140 69
239 188 271 329 16 69 13 267 -4 335 -49 186 -204 326 -410 370 -88 18 -269
18 -357 -1z m234 -296 c89 -27 158 -132 158 -242 0 -112 -42 -190 -123 -231
-92 -46 -186 -24 -244 58 -44 61 -56 108 -51 194 5 66 9 80 44 130 25 37 55
65 83 80 50 26 76 28 133 11z"/>
<path d="M4845 1091 c-16 -4 -48 -19 -70 -33 -94 -60 -139 -142 -140 -253 0
-114 35 -172 200 -333 74 -72 135 -136 135 -141 0 -6 -12 -18 -26 -28 -24 -15
-36 -16 -120 -5 -51 7 -117 21 -146 32 -29 11 -54 20 -55 20 -15 0 24 -310 41
-327 15 -15 104 -23 282 -23 l200 0 60 35 c110 66 154 143 154 272 0 113 -52
192 -215 328 -57 47 -107 95 -111 107 -17 55 76 72 210 38 48 -12 90 -19 94
-16 3 4 0 58 -7 122 -20 181 -21 184 -50 196 -32 12 -395 20 -436 9z"/>
<path d="M5790 1089 c-19 -6 -71 -24 -115 -41 -67 -27 -91 -44 -150 -103 -118
-118 -155 -213 -155 -400 0 -184 37 -282 150 -396 67 -68 153 -117 243 -140
29 -7 117 -10 239 -7 l193 3 89 44 c172 86 263 211 287 395 37 284 -67 494
-296 602 -38 18 -99 38 -135 44 -80 12 -302 12 -350 -1z m230 -299 c51 -14
107 -65 137 -124 73 -144 -13 -352 -155 -370 -89 -12 -158 26 -207 115 -26 47
-30 64 -30 134 0 93 17 137 77 197 52 52 109 67 178 48z"/>
<path d="M10 573 c0 -285 3 -528 6 -540 6 -23 8 -23 195 -23 l189 0 0 173 c0
94 3 182 6 195 6 22 9 22 154 22 199 0 192 -7 188 165 l-3 130 -173 3 -173 2
3 48 3 47 205 6 c113 3 206 6 206 7 1 1 5 55 9 121 5 82 4 125 -4 140 -12 21
-14 21 -411 21 l-400 0 0 -517z"/>
<path d="M880 551 l0 -541 185 0 185 0 0 400 0 400 65 0 c109 0 160 -34 153
-102 -4 -44 -42 -68 -122 -78 -37 -4 -70 -10 -72 -13 -8 -7 157 -591 169 -599
7 -4 94 -8 195 -8 208 0 208 0 177 79 -9 25 -44 120 -76 210 l-59 164 54 49
c34 30 66 70 83 106 25 50 28 68 28 147 -1 111 -24 170 -93 238 -84 82 -77 81
-499 85 l-373 4 0 -541z"/>
<path d="M3130 708 c0 -211 3 -454 7 -541 l6 -157 149 0 148 0 1 63 c1 34 1
166 0 292 -1 147 2 225 8 215 5 -8 30 -123 56 -255 25 -132 50 -257 56 -277
l10 -38 153 0 c122 0 156 3 166 14 6 8 38 142 70 298 l58 283 1 -221 c1 -122
4 -255 7 -297 l7 -77 158 0 159 0 0 540 0 540 -254 0 -253 0 -17 -87 c-90
-482 -82 -451 -94 -408 -6 22 -25 119 -42 215 -17 96 -35 199 -41 228 l-10 52
-255 0 -254 0 0 -382z"/>
<path d="M6636 1074 c-14 -14 -16 -76 -16 -539 0 -468 2 -524 16 -529 9 -3 96
-6 195 -6 l179 0 0 194 c0 168 2 195 16 200 9 3 87 6 175 6 l160 0 -3 143 -3
142 -150 6 c-82 4 -160 7 -172 8 -20 1 -23 6 -23 46 l0 45 199 0 c175 0 202 2
217 17 15 15 16 33 11 141 -3 89 -9 127 -18 133 -8 5 -184 9 -391 9 -329 0
-379 -2 -392 -16z"/>
<path d="M7497 1084 c-4 -4 -7 -69 -7 -145 0 -162 -15 -149 167 -149 l122 0 3
-385 c3 -330 5 -387 18 -395 8 -5 94 -10 191 -10 152 0 178 2 183 16 3 9 6
186 6 395 l0 379 128 0 c70 0 133 -4 140 -9 16 -10 13 0 103 -430 38 -186 75
-338 82 -343 6 -4 96 -8 199 -8 169 0 187 2 192 17 3 10 24 130 46 267 22 138
42 252 44 254 7 6 13 -22 61 -273 26 -132 52 -246 58 -253 17 -21 240 -12 285
12 53 28 112 86 136 135 33 66 47 118 121 476 37 176 73 347 80 380 8 32 12
62 9 65 -10 9 -304 4 -314 -6 -5 -5 -30 -138 -55 -294 -25 -157 -46 -292 -48
-300 -1 -8 -29 115 -61 274 -32 159 -62 300 -67 312 -8 24 -9 24 -176 24 -93
0 -178 -3 -190 -6 -27 -7 -32 -28 -79 -344 -20 -135 -40 -248 -44 -253 -3 -4
-19 73 -34 170 -15 98 -34 202 -42 232 -18 65 -83 138 -152 173 l-47 23 -525
3 c-289 2 -529 0 -533 -4z"/>
<path d="M10086 1068 c-9 -12 -41 -83 -73 -158 -31 -74 -128 -303 -215 -508
-88 -205 -157 -380 -154 -388 5 -13 35 -15 202 -12 220 3 208 -1 240 87 10 25
27 71 38 101 l21 55 161 3 161 2 42 -119 c34 -95 47 -120 64 -125 12 -3 173
-6 358 -6 l336 0 6 158 c4 86 7 266 7 400 l0 242 68 -1 c87 -1 111 -9 135 -41
15 -20 18 -35 13 -62 -8 -44 -37 -61 -124 -71 -34 -4 -64 -11 -67 -15 -11 -17
148 -589 167 -601 7 -5 97 -9 201 -9 180 0 187 1 187 20 0 11 -19 68 -41 127
-59 155 -99 274 -99 296 0 11 25 46 55 78 77 81 98 133 97 235 -2 104 -28 178
-84 234 -92 91 -154 102 -573 98 l-300 -3 -6 -60 c-4 -33 -7 -235 -8 -450 -1
-214 -5 -385 -9 -380 -10 12 -201 504 -279 720 -30 83 -62 156 -71 163 -11 9
-74 12 -228 12 -208 0 -213 -1 -228 -22z m294 -520 c0 -4 -33 -8 -74 -8 l-73
0 28 78 c55 154 47 151 85 37 19 -54 34 -103 34 -107z"/>
<path d="M11925 1068 c-3 -13 -4 -257 -3 -543 l3 -520 422 0 c232 0 425 4 430
8 4 5 8 67 7 139 0 101 -3 131 -15 139 -8 5 -73 9 -145 9 -72 0 -172 3 -222 6
l-92 7 0 37 c0 25 5 40 16 44 9 3 96 6 195 6 l179 0 0 145 0 145 -67 0 c-38 0
-125 3 -195 7 l-128 6 0 43 0 43 229 3 c126 2 233 7 238 11 4 5 8 67 7 139 -1
100 -4 132 -15 139 -8 5 -200 9 -426 9 l-413 0 -5 -22z"/>
</g>
</svg>
